<?xml version="1.0" standalone="no"?>
<!DOCTYPE svg PUBLIC "-//W3C//DTD SVG 20010904//EN"
 "http://www.w3.org/TR/2001/REC-SVG-20010904/DTD/svg10.dtd">
<svg version="1.0" xmlns="http://www.w3.org/2000/svg"
 width="600.000000pt" height="600.000000pt" viewBox="0 0 600.000000 600.000000"
 preserveAspectRatio="xMidYMid meet">
<metadata>
Created by potrace 1.11, written by Peter Selinger 2001-2013
</metadata>
<g transform="translate(0.000000,600.000000) scale(0.100000,-0.100000)"
fill="#000000" stroke="none">
<path d="M290 4380 l0 -240 470 0 470 0 0 -1330 0 -1330 290 0 290 0 0 1330 0
1330 475 0 475 0 0 240 0 240 -1235 0 -1235 0 0 -240z"/>
<path d="M3150 3040 l0 -1570 290 0 290 0 0 554 0 554 358 4 c344 5 361 6 475
32 410 94 674 327 778 686 32 112 33 120 33 305 0 178 -2 196 -28 290 -16 55
-51 145 -79 200 -107 211 -335 380 -604 449 -209 54 -390 66 -1035 66 l-478 0
0 -1570z m1235 1091 c179 -44 289 -122 354 -250 80 -156 80 -405 0 -563 -42
-84 -131 -169 -221 -211 -125 -60 -181 -67 -502 -67 l-286 0 0 562 0 561 288
-6 c238 -5 301 -9 367 -26z"/>
</g>
</svg>
