<svg width="304" height="304" viewBox="0 0 304 304" xmlns="http://www.w3.org/2000/svg">
  <title>
  </title>
  <path d="M44.100018 224c.46327-2.28224 2.481024-4 4.899982-4 2.761424 0 5 2.238576 5 5s-2.238576 5-5 5c-2.418958 0-4.436712-1.71776-4.899982-4H0v-2h44.100018zm160 48c.46327-2.28224 2.481024-4 4.899982-4 2.761424 0 5 2.238576 5 5s-2.238576 5-5 5c-2.418958 0-4.436712-1.71776-4.899982-4H82v-2h122.100018zm57.799964-46c-.46327 2.28224-2.481024 4-4.899982 4-2.761424 0-5-2.238576-5-5s2.238576-5 5-5c2.418958 0 4.436712 1.71776 4.899982 4H304v2h-42.100018zm0 16c-.46327 2.28224-2.481024 4-4.899982 4-2.761424 0-5-2.238576-5-5s2.238576-5 5-5c2.418958 0 4.436712 1.71776 4.899982 4H304v2h-42.100018zm6.200036-114c.46327-2.28224 2.481024-4 4.899982-4 2.761424 0 5 2.238576 5 5s-2.238576 5-5 5c-2.418958 0-4.436712-1.71776-4.899982-4h-86.200036c-.46327 2.28224-2.481024 4-4.899982 4-2.761424 0-5-2.238576-5-5s2.238576-5 5-5c2.418958 0 4.436712 1.71776 4.899982 4h86.200036zm-256-48c.46327-2.28224 2.481024-4 4.899982-4 2.761424 0 5 2.238576 5 5s-2.238576 5-5 5c-2.418958 0-4.436712-1.71776-4.899982-4H0v-2h12.100018zm185.799964 34c-.46327 2.28224-2.481024 4-4.899982 4-2.761424 0-5-2.238576-5-5s2.238576-5 5-5c2.418958 0 4.436712 1.71776 4.899982 4h86.200036c.46327-2.28224 2.481024-4 4.899982-4 2.761424 0 5 2.238576 5 5s-2.238576 5-5 5c-2.418958 0-4.436712-1.71776-4.899982-4h-86.200036zM258 12.100018c2.28224.46327 4 2.481024 4 4.899982 0 2.761424-2.238576 5-5 5s-5-2.238576-5-5c0-2.418958 1.71776-4.436712 4-4.899982V0h2v12.100018zm-64 208c2.28224.46327 4 2.481024 4 4.899982 0 2.761424-2.238576 5-5 5s-5-2.238576-5-5c0-2.418958 1.71776-4.436712 4-4.899982v-54.200036c-2.28224-.46327-4-2.481024-4-4.899982 0-2.761424 2.238576-5 5-5s5 2.238576 5 5c0 2.418958-1.71776 4.436712-4 4.899982v54.200036zm48-198.200036c2.28224-.46327 4-2.481024 4-4.899982 0-2.761424-2.238576-5-5-5s-5 2.238576-5 5c0 2.418958 1.71776 4.436712 4 4.899982V82h64v-2h-62V21.899982zm16 16c2.28224-.46327 4-2.481024 4-4.899982 0-2.761424-2.238576-5-5-5s-5 2.238576-5 5c0 2.418958 1.71776 4.436712 4 4.899982V66h48v-2h-46V37.899982zm-128 96c2.28224-.46327 4-2.481024 4-4.899982 0-2.761424-2.238576-5-5-5s-5 2.238576-5 5c0 2.418958 1.71776 4.436712 4 4.899982V210h16v10.100018c-2.28224.46327-4 2.481024-4 4.899982 0 2.761424 2.238576 5 5 5s5-2.238576 5-5c0-2.418958-1.71776-4.436712-4-4.899982V208h-16v-74.100018zM124.100018 112c.46327-2.28224 2.481024-4 4.899982-4 2.761424 0 5 2.238576 5 5s-2.238576 5-5 5c-2.418958 0-4.436712-1.71776-4.899982-4H114v48H85.899982c-.46327 2.28224-2.481024 4-4.899982 4-2.761424 0-5-2.238576-5-5s2.238576-5 5-5c2.418958 0 4.436712 1.71776 4.899982 4H112v-48h12.100018zm-6.200036 130c-.46327 2.28224-2.481024 4-4.899982 4-2.761424 0-5-2.238576-5-5s2.238576-5 5-5c2.418958 0 4.436712 1.71776 4.899982 4H176v-74.100018c-2.28224-.46327-4-2.481024-4-4.899982 0-2.761424 2.238576-5 5-5s5 2.238576 5 5c0 2.418958-1.71776 4.436712-4 4.899982V242h-60.100018zm-16-64c-.46327 2.28224-2.481024 4-4.899982 4-2.761424 0-5-2.238576-5-5s2.238576-5 5-5c2.418958 0 4.436712 1.71776 4.899982 4H114v48h10.100018c.46327-2.28224 2.481024-4 4.899982-4 2.761424 0 5 2.238576 5 5s-2.238576 5-5 5c-2.418958 0-4.436712-1.71776-4.899982-4H112v-48h-10.100018zM66 284.100018c2.28224.46327 4 2.481024 4 4.899982 0 2.761424-2.238576 5-5 5s-5-2.238576-5-5c0-2.418958 1.71776-4.436712 4-4.899982V274H50v30h-2v-32h18v12.100018zM236.100018 176c.46327-2.28224 2.481024-4 4.899982-4 2.761424 0 5 2.238576 5 5s-2.238576 5-5 5c-2.418958 0-4.436712-1.71776-4.899982-4H226v94h48v32h-2v-30h-48v-98h12.100018zm25.799964-30c-.46327 2.28224-2.481024 4-4.899982 4-2.761424 0-5-2.238576-5-5s2.238576-5 5-5c2.418958 0 4.436712 1.71776 4.899982 4H274v44.100018c2.28224.46327 4 2.481024 4 4.899982 0 2.761424-2.238576 5-5 5s-5-2.238576-5-5c0-2.418958 1.71776-4.436712 4-4.899982V146h-10.100018zm-64 96c-.46327 2.28224-2.481024 4-4.899982 4-2.761424 0-5-2.238576-5-5s2.238576-5 5-5c2.418958 0 4.436712 1.71776 4.899982 4H208v-80h16v-14h-42.100018c-.46327 2.28224-2.481024 4-4.899982 4-2.761424 0-5-2.238576-5-5s2.238576-5 5-5c2.418958 0 4.436712 1.71776 4.899982 4H226v18h-16v80h-12.100018zm86.200036-210c.46327-2.28224 2.481024-4 4.899982-4 2.761424 0 5 2.238576 5 5s-2.238576 5-5 5c-2.418958 0-4.436712-1.71776-4.899982-4H272V0h2v32h10.100018zM98 101.899982c2.28224-.46327 4-2.481024 4-4.899982 0-2.761424-2.238576-5-5-5s-5 2.238576-5 5c0 2.418958 1.71776 4.436712 4 4.899982V144H53.899982c-.46327-2.28224-2.481024-4-4.899982-4-2.761424 0-5 2.238576-5 5s2.238576 5 5 5c2.418958 0 4.436712-1.71776 4.899982-4H98v-44.100018zM53.899982 34c-.46327 2.28224-2.481024 4-4.899982 4-2.761424 0-5-2.238576-5-5s2.238576-5 5-5c2.418958 0 4.436712 1.71776 4.899982 4H80V0h2v34H53.899982zM114 37.899982c2.28224-.46327 4-2.481024 4-4.899982 0-2.761424-2.238576-5-5-5s-5 2.238576-5 5c0 2.418958 1.71776 4.436712 4 4.899982V64H80v64H69.899982c-.46327-2.28224-2.481024-4-4.899982-4-2.761424 0-5 2.238576-5 5s2.238576 5 5 5c2.418958 0 4.436712-1.71776 4.899982-4H82V66h32V37.899982zM101.899982 82c-.46327 2.28224-2.481024 4-4.899982 4-2.761424 0-5-2.238576-5-5s2.238576-5 5-5c2.418958 0 4.436712 1.71776 4.899982 4H128V37.899982c-2.28224-.46327-4-2.481024-4-4.899982 0-2.761424 2.238576-5 5-5s5 2.238576 5 5c0 2.418958-1.71776 4.436712-4 4.899982V82h-28.100018zm16-64c-.46327 2.28224-2.481024 4-4.899982 4-2.761424 0-5-2.238576-5-5s2.238576-5 5-5c2.418958 0 4.436712 1.71776 4.899982 4H146v44.100018c2.28224.46327 4 2.481024 4 4.899982 0 2.761424-2.238576 5-5 5s-5-2.238576-5-5c0-2.418958 1.71776-4.436712 4-4.899982V18h-26.100018zm102.200036 270c.46327-2.28224 2.481024-4 4.899982-4 2.761424 0 5 2.238576 5 5s-2.238576 5-5 5c-2.418958 0-4.436712-1.71776-4.899982-4H98v14h-2v-16h124.100018zM242 149.899982c2.28224-.46327 4-2.481024 4-4.899982 0-2.761424-2.238576-5-5-5s-5 2.238576-5 5c0 2.418958 1.71776 4.436712 4 4.899982V162h16v30h-16v66h48v46h2v-48h-48v-62h16v-34h-16v-10.100018zM53.899982 18c-.46327 2.28224-2.481024 4-4.899982 4-2.761424 0-5-2.238576-5-5s2.238576-5 5-5c2.418958 0 4.436712 1.71776 4.899982 4H64V2H48V0h18v18H53.899982zm112 32c-.46327 2.28224-2.481024 4-4.899982 4-2.761424 0-5-2.238576-5-5s2.238576-5 5-5c2.418958 0 4.436712 1.71776 4.899982 4H192V0h50v2h-48v48h-28.100018zm-48-48c-.46327 2.28224-2.481024 4-4.899982 4-2.761424 0-5-2.238576-5-5 0-.342466.03443-.67689.100018-1h2.070688C110.060154.31278 110 .649365 110 1c0 1.656854 1.343146 3 3 3s3-1.343146 3-3c0-.350635-.060154-.68722-.170706-1H178v34h-18V21.899982c-2.28224-.46327-4-2.481024-4-4.899982 0-2.761424 2.238576-5 5-5s5 2.238576 5 5c0 2.418958-1.71776 4.436712-4 4.899982V32h14V2h-58.100018zm0 96c-.46327 2.28224-2.481024 4-4.899982 4-2.761424 0-5-2.238576-5-5s2.238576-5 5-5c2.418958 0 4.436712 1.71776 4.899982 4H137l32-32h39V21.899982c-2.28224-.46327-4-2.481024-4-4.899982 0-2.761424 2.238576-5 5-5s5 2.238576 5 5c0 2.418958-1.71776 4.436712-4 4.899982V66h-40.171573l-32 32h-19.928445zM146 188.100018c2.28224.46327 4 2.481024 4 4.899982 0 2.761424-2.238576 5-5 5s-5-2.238576-5-5c0-2.418958 1.71776-4.436712 4-4.899982v-76.514232L175.585786 80H224V21.899982c-2.28224-.46327-4-2.481024-4-4.899982 0-2.761424 2.238576-5 5-5s5 2.238576 5 5c0 2.418958-1.71776 4.436712-4 4.899982V82h-49.585786L146 112.414214v75.685804zm16 32c2.28224.46327 4 2.481024 4 4.899982 0 2.761424-2.238576 5-5 5s-5-2.238576-5-5c0-2.418958 1.71776-4.436712 4-4.899982v-99.514232L184.585786 96H300.100018c.397683-1.95913 1.940852-3.5023 3.899982-3.899982v2.070688c-1.165192.411836-2 1.523075-2 2.829294 0 1.30622.834808 2.417458 2 2.829294v2.070688c-1.95913-.397683-3.5023-1.940852-3.899982-3.899982H185.414214L162 121.414214v98.685804zm-144-64c2.28224.46327 4 2.481024 4 4.899982 0 2.761424-2.238576 5-5 5s-5-2.238576-5-5c0-2.418958 1.71776-4.436712 4-4.899982v-3.514232l48-48V48h32V0h2v50H66v55.414213l-48 48v2.685805zM50 53.899982c2.28224-.46327 4-2.481024 4-4.899982 0-2.761424-2.238576-5-5-5s-5 2.238576-5 5c0 2.418958 1.71776 4.436712 4 4.899982v42.685804l-48 48V210h28.100018c.46327 2.28224 2.481024 4 4.899982 4 2.761424 0 5-2.238576 5-5s-2.238576-5-5-5c-2.418958 0-4.436712 1.71776-4.899982 4H2v-62.585786l48-48V53.899982zm-16 16c2.28224-.46327 4-2.481024 4-4.899982 0-2.761424-2.238576-5-5-5s-5 2.238576-5 5c0 2.418958 1.71776 4.436712 4 4.899982v18.685804l-32 32v2.828428l34-34V69.899982zM12.100018 32c.46327-2.28224 2.481024-4 4.899982-4 2.761424 0 5 2.238576 5 5s-2.238576 5-5 5c-2.418958 0-4.436712-1.71776-4.899982-4H9.414214L0 43.414214v-2.828428L8.585786 32h3.514232zm265.799964 18c-.46327 2.28224-2.481024 4-4.899982 4-2.761424 0-5-2.238576-5-5s2.238576-5 5-5c2.418958 0 4.436712 1.71776 4.899982 4h18.685804L304 40.585786v2.828428L297.414214 50h-19.514232zm-16 160c-.46327 2.28224-2.481024 4-4.899982 4-2.761424 0-5-2.238576-5-5s2.238576-5 5-5c2.418958 0 4.436712 1.71776 4.899982 4H288v-71.414213l16-16v2.828427l-14 14V210h-28.100018zm-208 32c-.46327 2.28224-2.481024 4-4.899982 4-2.761424 0-5-2.238576-5-5s2.238576-5 5-5c2.418958 0 4.436712 1.71776 4.899982 4H64v-22.585786L40.585786 194H21.899982c-.46327 2.28224-2.481024 4-4.899982 4-2.761424 0-5-2.238576-5-5s2.238576-5 5-5c2.418958 0 4.436712 1.71776 4.899982 4h19.514232L66 216.585786V242H53.899982zm150.200036 14c.46327-2.28224 2.481024-4 4.899982-4 2.761424 0 5 2.238576 5 5s-2.238576 5-5 5c-2.418958 0-4.436712-1.71776-4.899982-4H96v-56.59814L56.59814 162H37.899983c-.46327 2.28224-2.481024 4-4.899982 4-2.761424 0-5-2.238576-5-5s2.238576-5 5-5c2.418958 0 4.436712 1.71776 4.899982 4H57.40186L98 200.59814V256h106.100018zm-150.200036 2c-.46327 2.28224-2.481024 4-4.899982 4-2.761424 0-5-2.238576-5-5s2.238576-5 5-5c2.418958 0 4.436712 1.71776 4.899982 4H80v-46.585786L48.585786 178H21.899982c-.46327 2.28224-2.481024 4-4.899982 4-2.761424 0-5-2.238576-5-5s2.238576-5 5-5c2.418958 0 4.436712 1.71776 4.899982 4h27.514232L82 208.585786V258H53.899982zM97 100c1.656854 0 3-1.343146 3-3s-1.343146-3-3-3-3 1.343146-3 3 1.343146 3 3 3zm0-16c1.656854 0 3-1.343146 3-3s-1.343146-3-3-3-3 1.343146-3 3 1.343146 3 3 3zm16 16c1.656854 0 3-1.343146 3-3s-1.343146-3-3-3-3 1.343146-3 3 1.343146 3 3 3zm16 16c1.656854 0 3-1.343146 3-3s-1.343146-3-3-3-3 1.343146-3 3 1.343146 3 3 3zm0 16c1.656854 0 3-1.343146 3-3s-1.343146-3-3-3-3 1.343146-3 3 1.343146 3 3 3zm-48 32c1.656854 0 3-1.343146 3-3s-1.343146-3-3-3-3 1.343146-3 3 1.343146 3 3 3zm16 16c1.656854 0 3-1.343146 3-3s-1.343146-3-3-3-3 1.343146-3 3 1.343146 3 3 3zm32 48c1.656854 0 3-1.343146 3-3s-1.343146-3-3-3-3 1.343146-3 3 1.343146 3 3 3zm-16 16c1.656854 0 3-1.343146 3-3s-1.343146-3-3-3-3 1.343146-3 3 1.343146 3 3 3zm32-16c1.656854 0 3-1.343146 3-3s-1.343146-3-3-3-3 1.343146-3 3 1.343146 3 3 3zm0-32c1.656854 0 3-1.343146 3-3s-1.343146-3-3-3-3 1.343146-3 3 1.343146 3 3 3zm16 32c1.656854 0 3-1.343146 3-3s-1.343146-3-3-3-3 1.343146-3 3 1.343146 3 3 3zm32 16c1.656854 0 3-1.343146 3-3s-1.343146-3-3-3-3 1.343146-3 3 1.343146 3 3 3zm0-16c1.656854 0 3-1.343146 3-3s-1.343146-3-3-3-3 1.343146-3 3 1.343146 3 3 3zm-16-64c1.656854 0 3-1.343146 3-3s-1.343146-3-3-3-3 1.343146-3 3 1.343146 3 3 3zm16 0c1.656854 0 3-1.343146 3-3s-1.343146-3-3-3-3 1.343146-3 3 1.343146 3 3 3zm16 96c1.656854 0 3-1.343146 3-3s-1.343146-3-3-3-3 1.343146-3 3 1.343146 3 3 3zm0 16c1.656854 0 3-1.343146 3-3s-1.343146-3-3-3-3 1.343146-3 3 1.343146 3 3 3zm16 16c1.656854 0 3-1.343146 3-3s-1.343146-3-3-3-3 1.343146-3 3 1.343146 3 3 3zm16-144c1.656854 0 3-1.343146 3-3s-1.343146-3-3-3-3 1.343146-3 3 1.343146 3 3 3zm0 32c1.656854 0 3-1.343146 3-3s-1.343146-3-3-3-3 1.343146-3 3 1.343146 3 3 3zm16-32c1.656854 0 3-1.343146 3-3s-1.343146-3-3-3-3 1.343146-3 3 1.343146 3 3 3zm16-16c1.656854 0 3-1.343146 3-3s-1.343146-3-3-3-3 1.343146-3 3 1.343146 3 3 3zm-96 0c1.656854 0 3-1.343146 3-3s-1.343146-3-3-3-3 1.343146-3 3 1.343146 3 3 3zm0 16c1.656854 0 3-1.343146 3-3s-1.343146-3-3-3-3 1.343146-3 3 1.343146 3 3 3zm16-32c1.656854 0 3-1.343146 3-3s-1.343146-3-3-3-3 1.343146-3 3 1.343146 3 3 3zm96 0c1.656854 0 3-1.343146 3-3s-1.343146-3-3-3-3 1.343146-3 3 1.343146 3 3 3zm-16-64c1.656854 0 3-1.343146 3-3s-1.343146-3-3-3-3 1.343146-3 3 1.343146 3 3 3zm16-16c1.656854 0 3-1.343146 3-3s-1.343146-3-3-3-3 1.343146-3 3 1.343146 3 3 3zm-32 0c1.656854 0 3-1.343146 3-3s-1.343146-3-3-3-3 1.343146-3 3 1.343146 3 3 3zm0-16c1.656854 0 3-1.343146 3-3s-1.343146-3-3-3-3 1.343146-3 3 1.343146 3 3 3zm-16 0c1.656854 0 3-1.343146 3-3s-1.343146-3-3-3-3 1.343146-3 3 1.343146 3 3 3zm-16 0c1.656854 0 3-1.343146 3-3s-1.343146-3-3-3-3 1.343146-3 3 1.343146 3 3 3zm-16 0c1.656854 0 3-1.343146 3-3s-1.343146-3-3-3-3 1.343146-3 3 1.343146 3 3 3zM49 36c1.656854 0 3-1.343146 3-3s-1.343146-3-3-3-3 1.343146-3 3 1.343146 3 3 3zm-32 0c1.656854 0 3-1.343146 3-3s-1.343146-3-3-3-3 1.343146-3 3 1.343146 3 3 3zm32 16c1.656854 0 3-1.343146 3-3s-1.343146-3-3-3-3 1.343146-3 3 1.343146 3 3 3zM33 68c1.656854 0 3-1.343146 3-3s-1.343146-3-3-3-3 1.343146-3 3 1.343146 3 3 3zm16-48c1.656854 0 3-1.343146 3-3s-1.343146-3-3-3-3 1.343146-3 3 1.343146 3 3 3zm0 240c1.656854 0 3-1.343146 3-3s-1.343146-3-3-3-3 1.343146-3 3 1.343146 3 3 3zm16 32c1.656854 0 3-1.343146 3-3s-1.343146-3-3-3-3 1.343146-3 3 1.343146 3 3 3zm-16-64c1.656854 0 3-1.343146 3-3s-1.343146-3-3-3-3 1.343146-3 3 1.343146 3 3 3zm0 16c1.656854 0 3-1.343146 3-3s-1.343146-3-3-3-3 1.343146-3 3 1.343146 3 3 3zm-16-32c1.656854 0 3-1.343146 3-3s-1.343146-3-3-3-3 1.343146-3 3 1.343146 3 3 3zm80-176c1.656854 0 3-1.343146 3-3s-1.343146-3-3-3-3 1.343146-3 3 1.343146 3 3 3zm16 0c1.656854 0 3-1.343146 3-3s-1.343146-3-3-3-3 1.343146-3 3 1.343146 3 3 3zm-16-16c1.656854 0 3-1.343146 3-3s-1.343146-3-3-3-3 1.343146-3 3 1.343146 3 3 3zm32 48c1.656854 0 3-1.343146 3-3s-1.343146-3-3-3-3 1.343146-3 3 1.343146 3 3 3zm16-16c1.656854 0 3-1.343146 3-3s-1.343146-3-3-3-3 1.343146-3 3 1.343146 3 3 3zm0-32c1.656854 0 3-1.343146 3-3s-1.343146-3-3-3-3 1.343146-3 3 1.343146 3 3 3zm112 176c1.656854 0 3-1.343146 3-3s-1.343146-3-3-3-3 1.343146-3 3 1.343146 3 3 3zm-16 16c1.656854 0 3-1.343146 3-3s-1.343146-3-3-3-3 1.343146-3 3 1.343146 3 3 3zm0 16c1.656854 0 3-1.343146 3-3s-1.343146-3-3-3-3 1.343146-3 3 1.343146 3 3 3zm0 16c1.656854 0 3-1.343146 3-3s-1.343146-3-3-3-3 1.343146-3 3 1.343146 3 3 3zM17 180c1.656854 0 3-1.343146 3-3s-1.343146-3-3-3-3 1.343146-3 3 1.343146 3 3 3zm0 16c1.656854 0 3-1.343146 3-3s-1.343146-3-3-3-3 1.343146-3 3 1.343146 3 3 3zm0-32c1.656854 0 3-1.343146 3-3s-1.343146-3-3-3-3 1.343146-3 3 1.343146 3 3 3zm16 0c1.656854 0 3-1.343146 3-3s-1.343146-3-3-3-3 1.343146-3 3 1.343146 3 3 3zM17 84c1.656854 0 3-1.343146 3-3s-1.343146-3-3-3-3 1.343146-3 3 1.343146 3 3 3zm32 64c1.656854 0 3-1.343146 3-3s-1.343146-3-3-3-3 1.343146-3 3 1.343146 3 3 3zm16-16c1.656854 0 3-1.343146 3-3s-1.343146-3-3-3-3 1.343146-3 3 1.343146 3 3 3zM34 39.792893V0h-2v40.585786L8.585786 64H0v2h9.414213L34 41.414214v-1.62132zM2 300.100018V258h14v46h2v-48H0v46.170706C.31278 302.060154.649365 302 1 302c1.30622 0 2.417458.834808 2.829294 2h2.070688C5.5023 302.04087 3.95913 300.4977 2 300.100018zM34 241v63h-2v-62H0v-2h34v1zM17 18h1V0h-2v16H0v2h17zm273-2V0h-2v18h16v-2h-14zm-32 273v15h-2v-14h-14v14h-2v-16h18v1zM0 92.100018C.32311 92.03443.657534 92 1 92c2.761424 0 5 2.238576 5 5s-2.238576 5-5 5c-.342466 0-.67689-.03443-1-.100018v-2.070688C.31278 99.939846.649365 100 1 100c1.656854 0 3-1.343146 3-3s-1.343146-3-3-3c-.350635 0-.68722.060154-1 .170706v-2.070688zM80 272h2v32h-2v-32zm37.899982 32c-.46327-2.28224-2.481024-4-4.899982-4-2.418958 0-4.436712 1.71776-4.899982 4h2.070688c.411836-1.165192 1.523075-2 2.829294-2 1.30622 0 2.417458.834808 2.829294 2h2.070688zm-112-304C5.96557.32311 6 .657534 6 1c0 2.761424-2.238576 5-5 5-.342466 0-.67689-.03443-1-.100018V3.829294C.31278 3.939846.649365 4 1 4c1.656854 0 3-1.343146 3-3 0-.350635-.060154-.68722-.170706-1h2.070688zm294.200036 0C300.03443.32311 300 .657534 300 1c0 2.418958 1.71776 4.436712 4 4.899982V3.829294C302.834808 3.417458 302 2.30622 302 1c0-.350635.060154-.68722.170706-1h-2.070688zM304 300.100018c-1.95913.397683-3.5023 1.940852-3.899982 3.899982h2.070688c.301285-.852413.97688-1.52801 1.829294-1.829294v-2.070688z"/>
</svg>
